<?xml version="1.0" encoding="utf-8"?>
<svg width="1920px" height="1080px" viewBox="0 0 1920 1080" version="1.1" xmlns:xlink="http://www.w3.org/1999/xlink" xmlns="http://www.w3.org/2000/svg">
  <defs>
    <path d="M1920 0L1920 0L1920 1080L0 1080L0 0L1920 0Z" id="path_1" />
    <clipPath id="clip_1">
      <use xlink:href="#path_1" clip-rule="evenodd" fill-rule="evenodd" />
    </clipPath>
  </defs>
  <g id="site border">
    <path d="M1920 0L1920 0L1920 1080L0 1080L0 0L1920 0Z" id="site-border" fill="none" stroke="none" />
    <path d="M50 63.3481L130.528 98.7697L111.723 46.9605L139.931 75.9737L139.931 29L183.183 98.7697L201.988 29L237.718 87.0263L276.268 33.8355L282.85 75.9737L297.894 41.4342L311.057 98.7697L337.385 33.8355L366.532 98.7697L397.561 29L407.904 87.0263L436.111 41.4342L462.439 98.7697L475.602 33.8355L504.75 98.7697L537.659 29L561.165 110.513L580.911 33.8355L618.521 93.2434L633.565 46.9605L651.43 75.9737L673.056 41.4342L709.725 93.2434L730.411 33.8355L760.499 93.2434L784.946 41.4342L817.855 87.0263L844.182 41.4342L865.808 80.8092L904.358 46.9605L924.104 75.9737L941.969 46.9605L969.236 80.8092L990.862 46.9605L1004.03 98.7697L1047.28 41.4342L1068.9 87.0263L1098.05 46.9605L1130.02 87.0263L1152.59 52.4868L1164.81 87.0263L1190.2 52.4868L1207.12 87.0263L1237.21 46.9605L1256.95 93.2434L1272 63.3481L1288.92 80.8092L1301.15 46.9605L1345.34 98.7697L1365.08 29L1402.69 103.605L1429.02 29L1445.95 98.7697L1471.33 46.9605L1494.84 93.2434L1509.88 41.4342L1539.97 103.605L1572.88 41.4342L1593.57 110.513L1615.19 33.8355L1651.86 93.2434L1665.97 41.4342L1688.53 87.0263L1715.8 46.9605L1742.13 93.2434L1763.75 33.8355L1773.15 93.2435L1814.53 46.9605L1791.02 110.513L1858.72 87.0264L1814.53 122.257L1846.49 128.474L1814.53 141.599L1846.49 151.27L1803.24 162.322L1858.72 187.882L1814.53 201.007L1846.49 236.928L1814.53 257.651L1870 279.757L1814.53 305.316L1870 322.586L1814.53 343.309L1846.49 361.961L1803.24 378.539L1846.49 378.539L1814.53 392.355L1846.49 392.355L1791.02 409.625L1846.49 429.658L1791.02 448.309L1858.72 471.105L1791.02 495.974L1858.72 507.717L1838.03 516.007L1861.54 522.224L1784.44 538.112L1861.54 553.309L1814.53 562.289L1838.03 569.888L1798.54 578.869L1858.72 591.994L1791.02 608.572L1858.72 619.625L1791.02 645.184L1870 660.382L1784.44 679.033L1861.54 704.592L1791.02 719.79L1846.49 737.059L1814.53 751.566L1846.49 768.145L1798.54 788.178L1858.72 799.921L1791.02 826.171L1870 844.132L1803.24 860.711L1851.19 886.27L1821.11 893.178L1851.19 906.994L1784.44 920.119L1861.54 939.461L1798.54 963.638L1851.19 979.527L1803.24 999.559L1784.44 1032.03L1763.75 975.382L1742.13 1018.21L1722.38 999.559L1708.28 1018.21L1703.57 989.197L1683.83 1032.03L1674.43 975.382L1651.86 1036.17L1615.19 969.855L1593.57 1046.53L1572.88 975.382L1539.97 1032.03L1509.88 975.382L1494.84 1018.21L1471.33 989.197L1445.95 1032.03L1429.02 969.855L1402.69 1032.03L1365.08 969.855L1345.34 1032.03L1301.15 989.197L1288.92 1010.61L1272 999.559L1256.95 1032.03L1237.21 979.527L1207.12 1018.21L1181.73 989.197L1164.81 1018.21L1152.59 989.197L1130.02 1018.21L1098.05 979.527L1068.9 1032.03L1047.28 975.382L1013.43 1036.17L990.862 989.197L969.236 1010.61L941.968 989.197L924.104 1018.21L904.358 979.527L877.09 1018.21L844.182 979.527L817.855 1032.03L810.332 1010.61L801.87 1032.03L784.946 975.382L768.021 1032.03L730.411 979.527L709.725 1018.21L673.056 999.559L633.565 1032.03L633.565 989.197L618.521 1046.53L580.911 989.197L552.703 1052.75L537.659 975.382L504.75 1032.03L481.243 979.527L475.602 1018.21L462.439 999.56L451.155 1026.5L436.111 994.724L422.007 1018.21L397.561 984.362L366.532 1026.5L337.385 984.362L316.699 1032.03L288.491 994.724L276.268 1010.61L263.104 989.198L237.718 1026.5L201.988 975.382L183.183 1036.17L154.975 979.527L130.528 1026.5L120.185 989.198L88.2168 1022.36L104.201 989.198L66.591 994.724L120.185 969.856L56.2482 963.638L130.528 939.461L66.591 920.119L120.185 906.994L88.2168 893.178L120.185 886.27L66.591 860.711L139.931 844.132L50 826.171L130.528 799.921L66.591 788.178L111.723 768.145L76.9338 751.566L120.185 737.059L50 719.79L130.528 704.592L50 679.033L154.975 660.382L56.2482 645.184L111.723 619.625L66.591 608.572L120.185 591.994L66.591 578.869L130.528 553.309L50 538.112L111.723 522.224L50 495.974L111.723 485.612L88.2168 471.105L120.185 463.507L50 448.309L120.185 437.257L66.591 409.625L120.185 392.355L66.591 378.539L120.185 361.961L56.2482 343.309L120.185 332.947L56.2482 305.316L130.528 297.717L66.591 268.013L104.201 257.651L66.591 246.599L120.185 236.928L66.591 201.007L120.185 187.882L76.9338 173.375L104.201 162.322L66.591 151.27L120.185 151.27L76.9338 128.474L120.185 128.474L56.2482 110.513L104.201 103.605L50 63.3481Z" id="Path" fill="none" fill-rule="evenodd" stroke="#3E94D8" stroke-width="2" stroke-dasharray="10 5" clip-path="url(#clip_1)" />
  </g>
</svg>